<svg width="2397" height="1024" viewBox="0 0 2397 1024" fill="none" xmlns="http://www.w3.org/2000/svg">
<path d="M723.665 645.741V398.306C723.665 316.082 754.851 279.157 834.337 266.595C921.811 252.51 1009.28 238.425 1097.14 226.244C1118.87 224.318 1139.83 217.237 1158.28 205.586C1176.74 193.934 1192.15 178.049 1203.25 159.246C1225.31 123.463 1248.5 88.4415 1272.46 53.8006C1281.15 39.0384 1293.19 26.5287 1307.6 17.2811C1322.01 8.03357 1338.39 2.30735 1355.42 0.565858C1372.45 -1.17564 1389.64 1.11599 1405.63 7.25557C1421.61 13.3951 1435.92 23.2106 1447.41 35.9091C1536.41 122.702 1623.5 211.398 1710.97 299.713C1726.42 314.318 1737.17 333.201 1741.84 353.949C1746.52 374.698 1744.91 396.37 1737.21 416.198C1731.16 435.658 1719.53 452.915 1703.79 465.837C1688.04 478.758 1668.85 486.778 1648.6 488.906C1553.14 504.133 1458.44 519.359 1361.84 535.348C1333.32 536.815 1306.46 549.223 1286.84 569.994C1267.23 590.764 1256.36 618.3 1256.49 646.883C1257 675.501 1268.23 702.885 1287.95 723.611C1307.67 744.338 1334.45 756.896 1362.98 758.8C1458.44 774.027 1553.14 788.112 1649.36 805.242C1675.91 809.326 1700.03 823.07 1717.09 843.842C1734.16 864.614 1742.96 890.955 1741.83 917.822C1740.7 944.689 1729.71 970.195 1710.97 989.458C1692.22 1008.72 1667.04 1020.39 1640.23 1022.22C1546.67 1024 1453.12 1024 1359.56 1022.22C1333.33 1021.79 1308.24 1011.48 1289.27 993.351C1270.31 975.216 1258.88 950.592 1257.25 924.391C1241.28 828.843 1227.59 734.056 1211.23 637.367C1208.95 609.729 1196.39 583.955 1176.04 565.137C1155.69 546.318 1129.03 535.824 1101.32 535.728C1072.58 535.636 1044.86 546.406 1023.71 565.884C1002.55 585.363 989.525 612.115 987.226 640.792C972.773 731.772 959.462 823.133 945.771 914.113C934.361 990.247 890.244 1028.31 822.548 1022.6C754.851 1016.89 722.905 972.355 722.524 897.744C723.285 811.713 723.665 727.966 723.665 645.741ZM1370.21 490.428C1399.29 489.668 1426.98 477.816 1447.63 457.296C1468.27 436.776 1480.3 409.138 1481.26 380.034C1481.26 349.746 1469.24 320.699 1447.84 299.282C1426.44 277.865 1397.42 265.834 1367.16 265.834C1352.42 265.98 1337.85 269.064 1324.3 274.907C1310.76 280.75 1298.52 289.235 1288.28 299.866C1278.05 310.497 1270.04 323.061 1264.71 336.826C1259.38 350.59 1256.85 365.279 1257.25 380.034C1257.4 394.497 1260.41 408.787 1266.1 422.081C1271.79 435.376 1280.05 447.412 1290.41 457.496C1300.76 467.581 1313.01 475.514 1326.45 480.839C1339.88 486.165 1354.24 488.777 1368.68 488.525L1370.21 490.428Z" fill="#007BFF"/>
<path d="M586.81 453.503C621.019 308.43 531.255 163.069 386.316 128.828C241.377 94.5881 96.1491 184.435 61.9404 329.508C27.7317 474.581 117.496 619.943 262.435 654.183C407.374 688.423 552.602 598.575 586.81 453.503Z" fill="#007BFF"/>
<path d="M2127.04 890.511C2073.71 890.511 2021.58 874.683 1977.23 845.026C1932.89 815.37 1898.33 773.218 1877.92 723.901C1857.51 674.585 1852.17 620.318 1862.58 567.963C1872.98 515.609 1898.66 467.519 1936.37 429.773C1974.08 392.028 2022.13 366.323 2074.43 355.909C2126.74 345.495 2180.96 350.839 2230.23 371.267C2279.5 391.695 2321.61 426.288 2351.24 470.672C2380.87 515.056 2396.69 567.237 2396.69 620.617C2396.58 692.167 2368.14 760.757 2317.6 811.35C2267.05 861.943 2198.52 890.411 2127.04 890.511Z" fill="#007BFF"/>
</svg>
